<?xml version="1.0" standalone="no"?>
<!DOCTYPE svg PUBLIC "-//W3C//DTD SVG 20010904//EN"
 "http://www.w3.org/TR/2001/REC-SVG-20010904/DTD/svg10.dtd">
<svg version="1.0" xmlns="http://www.w3.org/2000/svg"
 width="1024.000000pt" height="1024.000000pt" viewBox="0 0 1024.000000 1024.000000"
 preserveAspectRatio="xMidYMid meet">

<g transform="translate(0.000000,1024.000000) scale(0.100000,-0.100000)"
fill="#000000" stroke="none">
<path d="M0 5120 l0 -5120 5120 0 5120 0 0 5120 0 5120 -5120 0 -5120 0 0
-5120z m5540 3526 c735 -93 1390 -415 1915 -941 408 -408 714 -914 865 -1431
41 -141 95 -385 104 -469 3 -27 -3 -7 -14 45 -93 460 -210 771 -420 1124 -83
139 -174 272 -267 389 -70 88 -144 167 -157 167 -5 0 2 -13 17 -28 15 -15 27
-37 28 -48 0 -19 1 -19 8 0 6 17 8 17 14 4 3 -9 3 -26 0 -37 -3 -14 -1 -21 8
-21 11 0 11 -2 -1 -10 -12 -8 -10 -10 10 -11 14 -1 29 -1 34 0 5 1 3 -5 -4
-14 -8 -10 -13 -34 -11 -55 2 -28 -2 -41 -16 -49 -17 -11 -17 -11 2 -10 35 2
46 -1 40 -11 -4 -6 -10 -8 -15 -5 -16 10 -18 -23 -3 -44 17 -26 14 -32 -20
-35 -20 -1 -23 -5 -17 -21 5 -11 12 -19 17 -18 5 1 10 -4 10 -11 0 -7 18 -39
40 -72 41 -60 217 -382 229 -419 3 -11 -40 63 -96 165 -102 184 -140 244 -254
395 -83 110 -214 255 -229 252 -6 -1 -11 5 -12 13 0 8 -6 15 -12 15 -7 0 -12
3 -10 7 3 10 -39 53 -128 130 -44 38 -91 79 -105 92 -37 34 -186 146 -255 192
-174 116 -454 261 -654 339 -503 196 -1189 245 -1746 124 -90 -19 -112 -22
-104 -15 6 6 242 55 318 66 109 15 318 30 446 31 66 1 114 3 108 6 -16 6 -17
43 -2 43 6 0 8 -7 5 -16 -5 -13 -2 -15 14 -11 22 6 28 -8 8 -16 -7 -3 -4 -6 7
-6 11 0 26 3 34 8 11 7 9 10 -8 16 -13 4 -18 11 -14 18 4 8 2 8 -9 -1 -13 -10
-16 -9 -21 9 -3 12 -10 18 -16 14 -6 -3 -11 2 -11 12 0 10 -7 31 -15 47 -18
34 -12 46 23 47 16 1 20 3 10 6 -10 3 -15 11 -12 21 5 15 4 15 -6 -1 -6 -9
-15 -15 -20 -12 -16 10 -20 -30 -6 -70 8 -22 11 -44 6 -49 -5 -5 -6 -16 -3
-25 4 -13 3 -13 -5 -2 -6 8 -9 26 -7 41 3 19 -3 32 -21 45 -13 10 -24 25 -24
33 0 13 3 12 16 -4 8 -10 13 -14 10 -7 -4 6 -2 14 4 18 5 3 10 15 10 25 0 13
5 17 15 14 8 -4 15 -1 15 6 0 8 -23 11 -80 8 -44 -2 -80 0 -80 3 0 8 -175 1
-315 -12 -140 -12 -300 -40 -439 -75 -54 -13 -101 -23 -103 -21 -5 6 177 53
292 76 105 20 319 48 420 55 131 8 545 -3 665 -18z m-405 -26 c3 -5 1 -10 -4
-10 -6 0 -11 5 -11 10 0 6 2 10 4 10 3 0 8 -4 11 -10z m-1064 -121 c-47 -16
-86 -27 -88 -25 -5 5 137 54 157 54 8 0 -23 -13 -69 -29z m1039 21 c0 -5 -5
-10 -11 -10 -5 0 -7 5 -4 10 3 6 8 10 11 10 2 0 4 -4 4 -10z m36 -49 c0 -11
-4 -17 -8 -15 -4 3 -8 12 -8 20 0 8 4 14 8 14 4 0 8 -9 8 -19z m-1296 -51 c-8
-5 -19 -10 -25 -10 -5 0 -3 5 5 10 8 5 20 10 25 10 6 0 3 -5 -5 -10z m-70 -30
c-8 -5 -19 -10 -25 -10 -5 0 -3 5 5 10 8 5 20 10 25 10 6 0 3 -5 -5 -10z
m1955 -765 c286 -8 589 -18 674 -21 l154 -6 -154 -146 c-85 -81 -266 -257
-402 -392 -136 -134 -253 -248 -260 -252 -7 -3 -125 -11 -262 -17 -138 -6
-300 -14 -362 -17 l-112 -6 -79 -81 c-120 -124 -323 -344 -340 -368 -14 -20
-9 -26 92 -128 l106 -106 630 -4 c346 -2 630 -7 630 -12 0 -5 -85 -86 -188
-181 -104 -95 -289 -267 -411 -382 l-221 -208 -207 1 -206 2 -243 -242 -243
-243 6 -265 c3 -146 8 -268 10 -271 3 -3 468 -7 1034 -10 l1030 -5 -309 -310
c-169 -170 -358 -358 -418 -418 l-111 -107 -697 0 c-599 0 -702 2 -730 15 -17
8 -157 141 -311 295 l-280 280 0 248 c0 136 2 350 5 475 l5 228 140 137 c77
76 215 210 306 298 91 88 169 166 173 173 7 11 -125 155 -465 506 -141 145
-163 173 -153 198 3 9 67 71 142 139 178 160 396 365 896 842 l408 388 102 -6
c55 -3 335 -13 621 -21z m1970 -315 c-3 -5 -10 -10 -16 -10 -5 0 -9 5 -9 10 0
6 7 10 16 10 8 0 12 -4 9 -10z m15 -35 c5 3 10 2 10 -4 0 -5 -5 -13 -10 -16
-12 -8 -40 12 -40 27 0 6 6 5 15 -2 8 -6 19 -9 25 -5z m28 -69 l2 -31 -16 28
c-15 28 -30 38 -21 13 3 -8 -1 -17 -9 -20 -9 -3 -14 1 -14 13 0 20 14 29 41
28 10 -1 16 -12 17 -31z m-22 -65 c-6 -10 -56 -12 -56 -2 0 4 14 8 31 9 17 1
28 -2 25 -7z m99 -41 c3 -6 -1 -7 -9 -4 -18 7 -21 14 -7 14 6 0 13 -4 16 -10z
m-18 -64 c2 -19 0 -18 -12 4 -18 32 -19 44 -2 29 7 -7 14 -22 14 -33z m-87
-77 c0 -5 -14 -23 -32 -40 -31 -29 -33 -29 -47 -12 -12 16 -13 16 -8 1 4 -10
2 -18 -4 -18 -7 0 -9 -10 -5 -24 3 -14 2 -28 -4 -31 -6 -3 -7 1 -4 9 6 16 -8
21 -48 17 -9 -1 -19 3 -23 10 -5 8 -1 9 14 4 17 -5 20 -3 14 12 -6 16 -5 16
11 4 16 -13 17 -12 11 12 -6 22 -2 28 27 43 18 10 41 17 51 15 9 -1 17 3 17 8
0 6 -8 11 -17 11 -15 0 -16 2 -3 10 15 9 50 -13 50 -31z m-140 -120 c0 -5 -4
-7 -10 -4 -10 6 -14 -7 -10 -35 1 -11 -1 -12 -10 -4 -9 9 -9 17 -1 33 12 22
31 28 31 10z m4 -34 c-4 -8 -8 -15 -10 -15 -2 0 -4 7 -4 15 0 8 4 15 10 15 5
0 7 -7 4 -15z m-707 -555 c-4 -27 -17 -38 -17 -13 0 18 8 33 17 33 1 0 2 -9 0
-20z m-53 -6 c3 -8 2 -12 -4 -9 -6 3 -10 10 -10 16 0 14 7 11 14 -7z m96 6 c8
-5 12 -11 10 -14 -3 -2 -14 2 -24 10 -22 15 -10 19 14 4z m-123 -16 c-3 -3
-12 -4 -19 -1 -8 3 -5 6 6 6 11 1 17 -2 13 -5z m135 -29 c10 -13 10 -35 1 -35
-5 0 -16 12 -26 26 -18 25 -18 25 0 22 10 -2 21 -7 25 -13z m-105 -1 c-3 -3
-12 -4 -19 -1 -8 3 -5 6 6 6 11 1 17 -2 13 -5z m-37 -13 c0 -3 -7 -14 -14 -24
-13 -17 -14 -16 -19 2 -3 11 -3 22 -1 24 6 6 34 4 34 -2z m185 -1 c-3 -5 -1
-18 4 -27 6 -11 11 -13 11 -5 0 7 5 10 11 6 8 -4 7 -9 -2 -15 -21 -13 -27 -11
-34 11 -6 19 0 40 11 40 3 0 2 -4 -1 -10z m-255 -20 c0 -5 -4 -10 -10 -10 -5
0 -10 5 -10 10 0 6 5 10 10 10 6 0 10 -4 10 -10z m50 -40 c0 -5 -4 -10 -10
-10 -5 0 -10 5 -10 10 0 6 5 10 10 10 6 0 10 -4 10 -10z m210 -20 c0 -5 -5
-10 -11 -10 -5 0 -7 5 -4 10 3 6 8 10 11 10 2 0 4 -4 4 -10z m-210 -13 c0 -8
11 -24 25 -37 38 -35 91 -31 128 10 26 29 28 30 25 8 -2 -13 -7 -29 -12 -36
-4 -7 -5 -16 -2 -19 3 -4 6 -1 6 5 0 7 9 11 20 9 22 -4 40 -17 22 -17 -7 0
-12 -7 -12 -15 0 -8 -4 -15 -9 -15 -5 0 -17 -7 -26 -16 -34 -34 -156 -22 -181
17 -3 6 4 4 17 -4 13 -8 41 -18 63 -22 34 -6 38 -4 32 11 -5 13 -4 15 8 5 21
-18 86 15 86 43 0 6 -4 5 -9 -3 -6 -10 -13 -10 -28 -3 -11 6 -25 7 -32 2 -11
-6 -10 -9 5 -13 10 -3 -3 -3 -31 0 -30 3 -59 13 -72 25 -25 23 -48 78 -32 78
5 0 9 -6 9 -13z m-4653 -39 c-3 -8 -6 -5 -6 6 -1 11 2 17 5 13 3 -3 4 -12 1
-19z m4881 -9 c-3 -8 -7 -3 -11 10 -4 17 -3 21 5 13 5 -5 8 -16 6 -23z m-261
-5 c-3 -3 -12 -4 -19 -1 -8 3 -5 6 6 6 11 1 17 -2 13 -5z m-4642 -86 c-17 -46
-47 -283 -57 -446 -34 -553 76 -1093 320 -1578 181 -360 473 -732 766 -977
517 -431 1056 -666 1678 -733 253 -27 644 -9 891 42 43 8 81 14 83 11 3 -2
-46 -14 -108 -26 -351 -68 -816 -68 -1153 0 -384 77 -784 240 -1095 447 -63
43 -121 78 -127 80 -7 2 -25 -6 -39 -17 -19 -15 -22 -21 -11 -21 9 0 19 4 22
10 3 5 11 10 17 10 23 0 -16 -30 -41 -31 l-26 -2 25 -4 c14 -3 32 -10 40 -16
8 -6 12 -8 8 -3 -8 10 8 46 21 46 5 0 11 -9 14 -20 3 -11 1 -20 -3 -20 -5 0
-10 8 -12 18 -3 10 -6 4 -9 -15 l-5 -32 38 20 c27 14 36 15 32 5 -5 -14 -83
-53 -96 -49 -5 2 -8 -2 -8 -7 0 -6 11 -8 25 -4 21 5 24 3 19 -11 -5 -11 -2
-16 7 -14 24 5 59 -12 59 -28 0 -14 -2 -14 -18 0 -10 10 -25 17 -33 16 -8 0
-4 -4 9 -9 12 -5 22 -15 22 -22 0 -10 -2 -10 -9 0 -9 14 -31 13 -44 -3 -5 -6
-6 -1 -3 10 9 34 -28 62 -40 30 -8 -19 22 -66 39 -62 6 1 11 -6 9 -15 -2 -13
2 -16 14 -11 13 5 15 3 9 -7 -5 -8 -3 -11 6 -8 8 3 13 10 12 15 -1 5 4 10 11
10 8 0 11 -8 9 -17 -3 -9 3 -24 11 -33 18 -17 115 -82 125 -82 6 -1 64 -31 92
-50 38 -24 105 -59 117 -61 18 -3 27 -13 19 -20 -7 -8 -239 113 -356 185 -222
137 -445 316 -627 502 -118 122 -246 271 -238 278 3 3 10 -2 15 -12 6 -9 20
-26 31 -37 23 -21 44 -27 33 -10 -4 6 5 5 19 -2 14 -6 26 -17 26 -25 0 -7 4
-13 10 -13 5 0 7 8 3 18 -5 14 -3 15 7 5 10 -9 17 -10 27 -2 10 9 13 7 13 -5
0 -10 5 -14 10 -11 18 11 -8 34 -32 27 -13 -3 -19 -1 -15 5 4 6 -3 9 -18 8
-17 -2 -26 3 -30 16 -4 10 -13 19 -21 19 -9 0 -12 5 -8 12 5 8 13 4 27 -13 19
-24 20 -24 13 -1 -7 22 7 31 19 11 4 -5 12 -8 18 -6 7 2 18 -3 25 -12 11 -14
11 -13 2 6 -6 13 -14 22 -18 22 -20 -3 -33 2 -27 11 3 6 0 13 -9 16 -9 3 -12
12 -9 22 5 14 4 15 -8 4 -12 -11 -11 -15 4 -26 15 -11 15 -15 3 -19 -19 -8
-40 18 -32 39 6 15 4 15 -11 3 -11 -9 -14 -10 -9 -1 4 6 3 12 -1 12 -5 0 -9 9
-9 20 0 17 2 18 16 5 18 -17 50 -20 50 -6 0 5 -3 11 -7 14 -5 2 -3 3 4 1 6 -1
19 6 29 17 20 22 34 25 35 7 0 -7 17 -26 37 -43 l37 -30 -24 30 c-13 17 -44
56 -69 87 -25 32 -49 55 -55 51 -6 -3 -7 -1 -3 5 4 6 -24 57 -62 114 -256 388
-432 838 -491 1259 -51 360 -49 651 6 974 14 83 27 153 30 158 7 12 13 8 8 -5z
m6342 -255 c-3 -10 -5 -4 -5 12 0 17 2 24 5 18 2 -7 2 -21 0 -30z m10 -90 c-3
-10 -5 -4 -5 12 0 17 2 24 5 18 2 -7 2 -21 0 -30z m-5407 -79 c22 -20 40 -41
40 -47 0 -5 -10 3 -22 18 -12 15 -35 36 -52 46 -17 10 -25 19 -19 19 7 0 31
-16 53 -36z m4937 -30 c-3 -3 -12 -4 -19 -1 -8 3 -5 6 6 6 11 1 17 -2 13 -5z
m-5127 -146 c0 -4 17 -16 38 -27 31 -17 34 -20 14 -21 -28 0 -82 51 -82 77 1
17 1 17 15 -1 8 -11 15 -23 15 -28z m4100 -478 c36 -26 48 -26 25 0 -10 11
-16 20 -14 20 3 0 21 -17 40 -37 18 -21 24 -29 12 -19 -25 21 -29 16 -13 -15
7 -13 7 -19 0 -19 -5 0 -10 5 -10 11 0 6 -7 9 -15 5 -8 -3 -15 -1 -15 4 0 6 5
10 12 10 12 0 2 15 -10 15 -4 0 -19 9 -34 18 -14 10 -40 19 -58 19 -17 1 -34
6 -37 11 -11 18 87 -1 117 -23z m-150 -10 c0 -5 -8 -10 -17 -10 -15 0 -16 2
-3 10 19 12 20 12 20 0z m127 -12 c29 -27 21 -50 -13 -34 -13 6 -24 17 -24 24
0 7 -4 11 -8 8 -5 -3 -9 1 -9 8 0 19 29 16 54 -6z m-147 -12 c0 -3 -4 -8 -10
-11 -5 -3 -10 -1 -10 4 0 6 5 11 10 11 6 0 10 -2 10 -4z m32 -180 c23 -15 111
-19 102 -4 -3 4 0 8 5 8 14 0 14 -27 1 -35 -18 -11 -97 -7 -117 6 -11 6 -25
26 -32 44 -16 44 -13 67 4 28 7 -17 24 -38 37 -47z m-3767 -276 c3 -6 -1 -7
-9 -4 -18 7 -21 14 -7 14 6 0 13 -4 16 -10z m-97 -236 l27 -12 -28 -1 c-17 -1
-37 8 -52 24 -33 32 -32 55 0 25 14 -14 38 -30 53 -36z m-337 -771 c-8 -15
-10 -15 -11 -2 0 17 10 32 18 25 2 -3 -1 -13 -7 -23z m-3 -29 c2 -1 -5 -5 -15
-8 -9 -4 -14 -4 -10 0 4 4 1 14 -6 23 -11 14 -10 15 8 1 11 -8 21 -15 23 -16z
m807 -675 c11 -16 2 -17 -25 -2 -24 12 -24 13 -3 13 12 0 25 -5 28 -11z m-60
-21 c-3 -30 -3 -30 -16 -22 -8 4 -7 9 2 15 11 7 9 9 -6 10 l-20 0 20 9 c11 5
21 9 21 9 1 1 0 -9 -1 -21z m115 -14 c0 -2 -11 -3 -24 -2 -14 1 -23 5 -20 9 4
7 44 0 44 -7z m-70 -26 c10 -21 10 -21 -3 -6 -8 10 -17 15 -20 11 -4 -3 -7 -1
-7 5 0 20 19 13 30 -10z m-125 -7 c3 -5 2 -12 -3 -15 -5 -3 -9 1 -9 9 0 17 3
19 12 6z m185 -21 c8 -5 11 -10 5 -10 -5 0 -17 5 -25 10 -8 5 -10 10 -5 10 6
0 17 -5 25 -10z m-130 -30 c0 -5 -2 -10 -4 -10 -3 0 -8 5 -11 10 -3 6 -1 10 4
10 6 0 11 -4 11 -10z m76 1 c-4 -5 -1 -12 4 -14 6 -3 5 -4 -2 -3 -15 3 -23 26
-8 26 6 0 9 -4 6 -9z m3129 -1 c-3 -5 -12 -10 -18 -10 -7 0 -6 4 3 10 19 12
23 12 15 0z m-69 -35 c-11 -8 -25 -15 -30 -15 -6 1 0 7 14 15 32 19 40 18 16
0z m-136 -65 c-8 -5 -19 -10 -25 -10 -5 0 -3 5 5 10 8 5 20 10 25 10 6 0 3 -5
-5 -10z m-120 -50 c-8 -5 -19 -10 -25 -10 -5 0 -3 5 5 10 8 5 20 10 25 10 6 0
3 -5 -5 -10z m-50 -20 c-8 -5 -19 -10 -25 -10 -5 0 -3 5 5 10 8 5 20 10 25 10
6 0 3 -5 -5 -10z m-190 -65 c-19 -7 -42 -13 -50 -13 -8 0 1 6 20 13 19 7 42
13 50 13 8 0 -1 -6 -20 -13z m-73 -21 c-3 -3 -12 -4 -19 -1 -8 3 -5 6 6 6 11
1 17 -2 13 -5z m-52 -14 c-11 -5 -29 -8 -40 -8 -16 0 -15 2 5 8 34 11 60 11
35 0z m-2071 -29 c4 -5 -3 -7 -14 -4 -23 6 -26 13 -6 13 8 0 17 -4 20 -9z m71
-32 c5 -5 -5 -4 -23 2 -17 6 -32 13 -32 16 0 7 43 -8 55 -18z"/>
<path d="M5220 8620 c0 -5 5 -10 11 -10 5 0 7 5 4 10 -3 6 -8 10 -11 10 -2 0
-4 -4 -4 -10z"/>
<path d="M5195 8559 c-4 -6 -5 -12 -2 -15 2 -3 7 2 10 11 7 17 1 20 -8 4z"/>
<path d="M5214 8528 c0 -10 1 -18 3 -18 1 0 7 8 12 18 7 13 6 19 -2 19 -7 0
-13 -9 -13 -19z"/>
<path d="M5327 8429 c7 -7 15 -10 18 -7 3 3 -2 9 -12 12 -14 6 -15 5 -6 -5z"/>
<path d="M7560 7486 c0 -2 7 -7 16 -10 8 -3 12 -2 9 4 -6 10 -25 14 -25 6z"/>
<path d="M7605 7420 c3 -5 8 -10 11 -10 2 0 4 5 4 10 0 6 -5 10 -11 10 -5 0
-7 -4 -4 -10z"/>
<path d="M7635 7360 c4 -6 11 -8 16 -5 14 9 11 15 -7 15 -8 0 -12 -5 -9 -10z"/>
<path d="M7625 7190 c-10 -11 -13 -20 -8 -20 13 0 38 29 31 35 -3 3 -13 -4
-23 -15z"/>
<path d="M2654 3341 c4 -5 0 -12 -6 -14 -8 -3 -7 -6 4 -6 9 -1 22 -9 27 -18 7
-11 11 -13 11 -5 0 19 -19 52 -31 52 -6 0 -8 -4 -5 -9z"/>
<path d="M2690 3270 c0 -5 5 -12 10 -15 6 -3 10 -1 10 5 0 6 6 8 13 4 6 -4 8
-3 4 1 -10 12 -37 15 -37 5z"/>
<path d="M2770 3255 c13 -14 26 -25 28 -25 3 0 -5 11 -18 25 -13 14 -26 25
-28 25 -3 0 5 -11 18 -25z"/>
<path d="M2650 3259 c0 -5 5 -7 10 -4 6 3 10 8 10 11 0 2 -4 4 -10 4 -5 0 -10
-5 -10 -11z"/>
<path d="M2715 3216 c17 -12 45 -12 45 1 0 3 -7 3 -15 0 -8 -4 -17 -2 -20 3
-4 6 -11 10 -18 10 -6 0 -2 -6 8 -14z"/>
<path d="M2810 3207 c0 -2 15 -16 33 -33 l32 -29 -29 33 c-28 30 -36 37 -36
29z"/>
<path d="M2748 3053 c7 -3 16 -2 19 1 4 3 -2 6 -13 5 -11 0 -14 -3 -6 -6z"/>
<path d="M2760 3029 c0 -5 5 -7 10 -4 6 3 10 8 10 11 0 2 -4 4 -10 4 -5 0 -10
-5 -10 -11z"/>
<path d="M3110 2917 c0 -3 12 -12 26 -22 15 -9 23 -12 20 -6 -7 11 -46 35 -46
28z"/>
<path d="M3158 2843 c7 -3 16 -2 19 1 4 3 -2 6 -13 5 -11 0 -14 -3 -6 -6z"/>
<path d="M3247 2809 c12 -12 24 -21 27 -18 2 2 -8 13 -22 23 l-27 19 22 -24z"/>
<path d="M3190 2729 c0 -5 5 -7 10 -4 6 3 10 8 10 11 0 2 -4 4 -10 4 -5 0 -10
-5 -10 -11z"/>
<path d="M3195 2700 c3 -5 8 -10 11 -10 2 0 4 5 4 10 0 6 -5 10 -11 10 -5 0
-7 -4 -4 -10z"/>
<path d="M3238 2703 c7 -3 16 -2 19 1 4 3 -2 6 -13 5 -11 0 -14 -3 -6 -6z"/>
<path d="M3128 2693 c7 -3 16 -2 19 1 4 3 -2 6 -13 5 -11 0 -14 -3 -6 -6z"/>
<path d="M3245 2669 c-4 -11 -4 -23 -1 -26 3 -4 6 0 6 7 0 7 8 19 18 26 16 12
16 13 0 14 -9 0 -20 -9 -23 -21z"/>
<path d="M6900 4849 c0 -5 5 -7 10 -4 6 3 10 8 10 11 0 2 -4 4 -10 4 -5 0 -10
-5 -10 -11z"/>
</g>
</svg>
